<svg id="visual" viewBox="0 0 900 600" width="900" height="600" xmlns="http://www.w3.org/2000/svg" xmlns:xlink="http://www.w3.org/1999/xlink" version="1.1"><rect x="0" y="0" width="900" height="600" fill="#25233B"></rect><path d="M276 600L273.2 580C270.3 560 264.7 520 304 480C343.3 440 427.7 400 425.2 360C422.7 320 333.3 280 341.5 240C349.7 200 455.3 160 492.3 120C529.3 80 497.7 40 481.8 20L466 0L900 0L900 20C900 40 900 80 900 120C900 160 900 200 900 240C900 280 900 320 900 360C900 400 900 440 900 480C900 520 900 560 900 580L900 600Z" fill="#25233b"></path><path d="M477 600L505.2 580C533.3 560 589.7 520 603.3 480C617 440 588 400 590.8 360C593.7 320 628.3 280 646.3 240C664.3 200 665.7 160 646.8 120C628 80 589 40 569.5 20L550 0L900 0L900 20C900 40 900 80 900 120C900 160 900 200 900 240C900 280 900 320 900 360C900 400 900 440 900 480C900 520 900 560 900 580L900 600Z" fill="#533392"></path><path d="M687 600L692 580C697 560 707 520 701.3 480C695.7 440 674.3 400 691.8 360C709.3 320 765.7 280 767.8 240C770 200 718 160 683.2 120C648.3 80 630.7 40 621.8 20L613 0L900 0L900 20C900 40 900 80 900 120C900 160 900 200 900 240C900 280 900 320 900 360C900 400 900 440 900 480C900 520 900 560 900 580L900 600Z" fill="#a91fe1"></path></svg>