<svg id="visual" viewBox="0 0 900 600" width="900" height="600" xmlns="http://www.w3.org/2000/svg" xmlns:xlink="http://www.w3.org/1999/xlink" version="1.1"><rect x="0" y="0" width="900" height="600" fill="#fff"></rect><path d="M483 0L440.2 20C397.3 40 311.7 80 246.8 120C182 160 138 200 172.2 240C206.3 280 318.7 320 395.8 360C473 400 515 440 455.7 480C396.3 520 235.7 560 155.3 580L75 600L0 600L0 580C0 560 0 520 0 480C0 440 0 400 0 360C0 320 0 280 0 240C0 200 0 160 0 120C0 80 0 40 0 20L0 0Z" fill="#ffffff"></path><path d="M472 0L417.7 20C363.3 40 254.7 80 195.7 120C136.7 160 127.3 200 168.7 240C210 280 302 320 360 360C418 400 442 440 452 480C462 520 458 560 456 580L454 600L0 600L0 580C0 560 0 520 0 480C0 440 0 400 0 360C0 320 0 280 0 240C0 200 0 160 0 120C0 80 0 40 0 20L0 0Z" fill="#ffe196"></path><path d="M305 0L271.7 20C238.3 40 171.7 80 164 120C156.3 160 207.7 200 228 240C248.3 280 237.7 320 214.7 360C191.7 400 156.3 440 158.5 480C160.7 520 200.3 560 220.2 580L240 600L0 600L0 580C0 560 0 520 0 480C0 440 0 400 0 360C0 320 0 280 0 240C0 200 0 160 0 120C0 80 0 40 0 20L0 0Z" fill="#ffc40e"></path></svg>