<svg width="40" height="40" viewBox="0 0 40 40" fill="none" xmlns="http://www.w3.org/2000/svg">
<path d="M22.3499 20.0003L29.5166 12.8503C29.8304 12.5365 30.0067 12.1108 30.0067 11.667C30.0067 11.2231 29.8304 10.7975 29.5166 10.4837C29.2027 10.1698 28.7771 9.9935 28.3332 9.9935C27.8894 9.9935 27.4637 10.1698 27.1499 10.4837L19.9999 17.6503L12.8499 10.4837C12.5361 10.1698 12.1104 9.9935 11.6666 9.9935C11.2227 9.9935 10.7971 10.1698 10.4832 10.4837C10.1694 10.7975 9.99308 11.2231 9.99308 11.667C9.99308 12.1108 10.1694 12.5365 10.4832 12.8503L17.6499 20.0003L10.4832 27.1503C10.327 27.3053 10.203 27.4896 10.1184 27.6927C10.0338 27.8958 9.99023 28.1136 9.99023 28.3337C9.99023 28.5537 10.0338 28.7715 10.1184 28.9746C10.203 29.1777 10.327 29.362 10.4832 29.517C10.6382 29.6732 10.8225 29.7972 11.0256 29.8818C11.2287 29.9664 11.4465 30.01 11.6666 30.01C11.8866 30.01 12.1044 29.9664 12.3075 29.8818C12.5106 29.7972 12.695 29.6732 12.8499 29.517L19.9999 22.3503L27.1499 29.517C27.3048 29.6732 27.4892 29.7972 27.6923 29.8818C27.8954 29.9664 28.1132 30.01 28.3332 30.01C28.5533 30.01 28.7711 29.9664 28.9742 29.8818C29.1773 29.7972 29.3616 29.6732 29.5166 29.517C29.6728 29.362 29.7968 29.1777 29.8814 28.9746C29.966 28.7715 30.0096 28.5537 30.0096 28.3337C30.0096 28.1136 29.966 27.8958 29.8814 27.6927C29.7968 27.4896 29.6728 27.3053 29.5166 27.1503L22.3499 20.0003Z" fill="#6F698F"/>
</svg>
